<?xml version="1.0" encoding="UTF-8"?>
<svg width="128px" height="128px" viewBox="0 0 128 128" version="1.1" xmlns="http://www.w3.org/2000/svg" xmlns:xlink="http://www.w3.org/1999/xlink">
    <!-- Generator: Sketch 51.2 (57519) - http://www.bohemiancoding.com/sketch -->
    <title>antenna</title>
    <desc>Created with Sketch.</desc>
    <defs></defs>
    <g id="antenna" stroke="none" stroke-width="1" fill="none" fill-rule="evenodd">
        <path d="M46.7516868,38.2151045 C46.7516868,29.4160491 53.7034037,22.4561404 62.3930498,22.4561404 C70.8153221,22.4561404 78.0344127,29.4160491 78.0344127,38.2151045 C78.0344127,44.6743104 74.0238068,50.0280864 68.649595,52.3981723 L68.649595,60.2776542 L68.649595,128 L56.1365046,128 L56.1365046,59.4897059 L56.1365046,52.3981723 C50.494919,50.2957752 46.7516868,44.6743104 46.7516868,38.2151045 Z" id="Mask" fill="#000000" fill-rule="nonzero"></path>
        <path d="M2.0620783,62.5538783 L2.0620783,54.4536695 C2.97554624,54.5140938 3.89709585,54.544783 4.82577777,54.544783 C27.7210138,54.544783 46.2812698,35.8920479 46.2812698,12.8827332 C46.2812698,11.9494239 46.2507327,11.0232826 46.1906079,10.1052632 L54.2506563,10.1052632 C54.4631193,11.9272233 54.5723683,13.7808914 54.5723683,15.6602032 C54.5723683,41.7374266 33.5374114,62.877193 7.58947726,62.877193 C5.71948306,62.877193 3.8750053,62.7673999 2.0620783,62.5538783 Z" id="Left-Outer" fill="#000000" fill-rule="nonzero" transform="translate(28.317223, 36.491228) rotate(135.000000) translate(-28.317223, -36.491228) "></path>
        <path d="M57.9240889,20.2105263 C56.5744272,39.4296203 41.296209,54.7839639 22.1724021,56.1403509 L22.1724021,49.0205828 C36.9603119,46.8216834 48.6516229,35.0721189 50.8396201,20.2105263 L57.9240889,20.2105263 Z" id="Left-Inner" fill="#000000" fill-rule="nonzero" transform="translate(40.048246, 38.175439) rotate(135.000000) translate(-40.048246, -38.175439) "></path>
        <path d="M70.2137313,62.5538783 L70.2137313,54.4536695 C71.1271992,54.5140938 72.0487488,54.544783 72.9774307,54.544783 C95.8726668,54.544783 114.432923,35.8920479 114.432923,12.8827331 C114.432923,11.9494239 114.402386,11.0232826 114.342261,10.1052632 L122.402309,10.1052632 C122.614772,11.9272233 122.724021,13.7808914 122.724021,15.6602032 C122.724021,41.7374266 101.689065,62.877193 75.7411302,62.877193 C73.871136,62.877193 72.0266582,62.7673999 70.2137313,62.5538783 Z" id="Right-Outer" fill="#000000" fill-rule="nonzero" transform="translate(96.468876, 36.491228) rotate(-45.000000) translate(-96.468876, -36.491228) "></path>
        <path d="M102.613697,20.2105263 C101.264036,39.4296203 85.9858175,54.7839639 66.8620106,56.1403509 L66.8620106,49.0205828 C81.6499204,46.8216834 93.3412314,35.0721189 95.5292287,20.2105263 L102.613697,20.2105263 Z" id="Right-Inner" fill="#000000" fill-rule="nonzero" transform="translate(84.737854, 38.175439) rotate(-45.000000) translate(-84.737854, -38.175439) "></path>
    </g>
</svg>