<?xml version="1.0" encoding="UTF-8"?>
<svg width="128px" height="128px" viewBox="0 0 128 128" version="1.1" xmlns="http://www.w3.org/2000/svg" xmlns:xlink="http://www.w3.org/1999/xlink">
    <!-- Generator: Sketch 51.2 (57519) - http://www.bohemiancoding.com/sketch -->
    <title>antenna-transmit</title>
    <desc>Created with Sketch.</desc>
    <defs></defs>
    <g id="antenna-transmit" stroke="none" stroke-width="1" fill="none" fill-rule="evenodd">
        <path d="M127.558881,74 L120.304557,74 C120.38184,72.7467622 120.421053,71.4832236 120.421053,70.2105263 C120.421053,36.7246299 93.2753701,9.57894737 59.7894737,9.57894737 C58.5167764,9.57894737 57.2532378,9.61816008 56,9.69544337 L56,2.44111861 C58.4858127,2.14979752 61.0148865,2 63.5789474,2 C99.1577121,2 128,30.8422879 128,66.4210526 C128,68.9851135 127.850202,71.5141873 127.558881,74 Z" id="Wave-Small" fill="#000000"></path>
        <path d="M56,17 C86.927946,17 112,42.072054 112,73 L103.870129,73 C103.520471,46.7187131 82.2812869,25.4795286 56,25.1298706 L56,17 Z" id="Wave-Medium" fill="#000000"></path>
        <path d="M56,32 C77.3750967,34.0488893 94.3434507,51.8067386 96,74 L88.893186,74 C86.4373079,56.2909007 73.0344304,42.23492 56,39.394696 L56,32 Z" id="Wave-Large" fill="#000000"></path>
        <path d="M53,128 L0,128 L21.8931541,103 L28.4546082,109.125975 L42.9363873,107.732687 L53,128 Z M49.4185039,70.4054855 L70.7076902,58.2402362 L58.5424409,79.5294225 L79,99.9869817 L30.0260367,104 L22,95.9739633 L26.0130183,47 L49.4185039,70.4054855 Z" id="icon" fill="#000000"></path>
    </g>
</svg>