<?xml version="1.0" encoding="UTF-8"?>
<svg width="128px" height="128px" viewBox="0 0 128 128" version="1.1" xmlns="http://www.w3.org/2000/svg" xmlns:xlink="http://www.w3.org/1999/xlink">
    <!-- Generator: Sketch 51.2 (57519) - http://www.bohemiancoding.com/sketch -->
    <title>antenna-receive</title>
    <desc>Created with Sketch.</desc>
    <defs></defs>
    <g id="antenna-receive" stroke="none" stroke-width="1" fill="none" fill-rule="evenodd">
        <path d="M36.4531004,17.3386701 L42.1791739,26.394633 C43.0874341,27.8310747 42.6899368,29.7517538 41.2913388,30.6845899 C39.8927404,31.617426 38.0226623,31.2091731 37.1144021,29.7727314 L31.3538413,20.6622259 C24.5730782,25.6294396 18.9861533,32.0797375 15.0914645,39.5231503 L25.1391152,44.2484753 C26.7060665,44.9853994 27.3839972,46.8639115 26.6533158,48.4442499 C25.9226344,50.0245887 24.060035,50.7083113 22.4930837,49.9713872 L12.5002669,45.2718501 C10.2260535,51.2286419 8.98245614,57.6795185 8.98245614,64.4151003 C8.98245614,66.19221 9.06898632,67.9583817 9.24046895,69.7088845 L20.0237154,68.2575753 C21.7303737,68.0278776 23.3083347,69.1666016 23.5481899,70.800987 C23.7880451,72.4353722 22.5989662,73.9465102 20.8923079,74.176208 L10.1545176,75.6213992 C11.2728201,80.8864435 13.1806645,85.9515592 15.831892,90.6783306 L113.712769,89.9114211 C116.12215,85.4479274 117.875808,80.6958726 118.936945,75.7683027 L107.107692,74.176208 C105.401034,73.9465102 104.211955,72.4353722 104.45181,70.800987 C104.691665,69.1666016 106.269626,68.0278776 107.976285,68.2575753 L119.867562,69.8580135 C120.048866,68.0586307 120.140351,66.2426202 120.140351,64.4151003 C120.140351,45.8327569 110.675135,29.4173497 96.2168657,19.5654119 L89.7627905,29.7727314 C88.8545303,31.2091731 86.9844522,31.617426 85.5858542,30.6845899 C84.1872562,29.7517538 83.7897589,27.8310747 84.6980191,26.394633 L91.0067252,16.4172187 C83.6058303,12.4797263 75.1915197,10.1434743 66.2456213,9.88214226 L66.245614,21.3514163 C66.245614,23.062833 64.9888696,24.4502103 63.4385965,24.4502103 C61.8883234,24.4502103 60.6315789,23.062833 60.6315789,21.3514163 L60.6315789,9.99182954 C51.8529667,10.5937264 43.636883,13.196616 36.4531004,17.3386701 Z M119.249384,96.7721112 L118.031987,98.8146112 L10.5249022,99.6584147 L9.274712,97.6357088 C3.20365116,87.813227 0,76.5825021 0,64.9688923 C0,30.1895928 28.6563566,2 64.0000001,2 C99.3436435,2 128,30.1895927 128,64.9688923 C128,76.2389934 124.983721,87.1512702 119.249384,96.7721112 Z" id="Combined-Shape" fill="#000000"></path>
        <path d="M68.9827525,57.1675354 C91.3841333,48.7157619 103.571169,44.54578 105.54386,44.6575893 C105.22753,46.1838202 94.2780092,53.2714725 72.695297,65.9205459 C72.036512,70.3991209 68.1005372,73.8406729 63.3434969,73.8406729 C58.1250908,73.8406729 53.8947368,69.6991848 53.8947368,64.5904005 C53.8947368,59.4816163 58.1250908,55.3401282 63.3434969,55.3401282 C65.4571638,55.3401282 67.4087329,56.0195723 68.9827525,57.1675354 Z" id="Mask" fill="#000000"></path>
        <rect x="32.5614035" y="104.148457" width="61.754386" height="22.4502103" rx="2.929"></rect>
    </g>
</svg>