<?xml version="1.0" encoding="UTF-8"?>
<svg width="128px" height="128px" viewBox="0 0 128 128" version="1.1" xmlns="http://www.w3.org/2000/svg" xmlns:xlink="http://www.w3.org/1999/xlink">
    <!-- Generator: Sketch 51.2 (57519) - http://www.bohemiancoding.com/sketch -->
    <title>caution</title>
    <desc>Created with Sketch.</desc>
    <defs></defs>
    <g id="caution" stroke="none" stroke-width="1" fill="none" fill-rule="evenodd">
        <path d="M64.0314473,5 C72.4922055,5 132.911441,112.242942 127.679407,119.184323 C122.447373,126.125704 6.87437942,124.660893 0.466930069,119.184323 C-5.94051928,113.707754 55.5706892,5 64.0314473,5 Z M67.4812271,80.8940972 L69.3026557,46.0012401 L56.9455128,46.0012401 L58.7669414,80.8940972 L67.4812271,80.8940972 Z M56.8026557,93.1083829 C56.8026557,95.036964 57.3502692,96.5309967 58.4455128,97.5905258 C59.5407564,98.6500549 61.08836,99.1798115 63.08837,99.1798115 C65.0407607,99.1798115 66.564555,98.6381503 67.6597985,97.5548115 C68.7550421,96.4714728 69.3026557,94.9893447 69.3026557,93.1083829 C69.3026557,91.1559922 68.7609944,89.6560072 67.6776557,88.6083829 C66.5943169,87.5607587 65.0645703,87.0369544 63.08837,87.0369544 C61.0407407,87.0369544 59.4812325,87.548854 58.4097985,88.5726687 C57.3383646,89.5964833 56.8026557,91.1083729 56.8026557,93.1083829 Z" id="icon" fill="#000000"></path>
    </g>
</svg>