<?xml version="1.0" encoding="UTF-8"?>
<svg width="128px" height="128px" viewBox="0 0 128 128" version="1.1" xmlns="http://www.w3.org/2000/svg" xmlns:xlink="http://www.w3.org/1999/xlink">
    <!-- Generator: Sketch 51.2 (57519) - http://www.bohemiancoding.com/sketch -->
    <title>equipment</title>
    <desc>Created with Sketch.</desc>
    <defs></defs>
    <g id="equipment" stroke="none" stroke-width="1" fill="none" fill-rule="evenodd">
        <path d="M0,11.255296 C0,7.24830655 3.1640625,4 7.11007033,4 L120.88993,4 C124.816713,4 128,7.21991547 128,11.255296 L128,33.0281686 C128,37.035158 124.835937,40.2834646 120.88993,40.2834646 L7.11007033,40.2834646 C3.18328691,40.2834646 0,37.0635491 0,33.0281686 L0,11.255296 Z M7.05511811,14.550146 L7.05511811,28.7254445 C7.05511811,30.6296308 8.6370669,32.2204724 10.5884997,32.2204724 L117.4115,32.2204724 C119.3349,32.2204724 120.944882,30.6556952 120.944882,28.7254445 L120.944882,14.550146 C120.944882,12.6459598 119.362933,11.0551181 117.4115,11.0551181 L10.5884997,11.0551181 C8.66509962,11.0551181 7.05511811,12.6198953 7.05511811,14.550146 Z" id="Combined-Shape" fill="#000000"></path>
        <polygon id="Combined-Shape" fill="#000000" points="18.1417323 18.1102362 25.1968504 18.1102362 25.1968504 25.1653543 18.1417323 25.1653543"></polygon>
        <polygon id="Combined-Shape" fill="#000000" points="32.2519685 18.1102362 39.3070866 18.1102362 39.3070866 25.1653543 32.2519685 25.1653543"></polygon>
        <polygon id="Combined-Shape" fill="#000000" points="46.3622047 18.1102362 53.4173228 18.1102362 53.4173228 25.1653543 46.3622047 25.1653543"></polygon>
        <path d="M0,53.5860047 C0,49.5790152 3.1640625,46.3307087 7.11007033,46.3307087 L120.88993,46.3307087 C124.816713,46.3307087 128,49.5506241 128,53.5860047 L128,75.3588772 C128,79.3658667 124.835937,82.6141732 120.88993,82.6141732 L7.11007033,82.6141732 C3.18328691,82.6141732 0,79.3942578 0,75.3588772 L0,53.5860047 Z M7.05511811,56.8808547 L7.05511811,71.0561532 C7.05511811,72.9603395 8.6370669,74.5511811 10.5884997,74.5511811 L117.4115,74.5511811 C119.3349,74.5511811 120.944882,72.9864039 120.944882,71.0561532 L120.944882,56.8808547 C120.944882,54.9766684 119.362933,53.3858268 117.4115,53.3858268 L10.5884997,53.3858268 C8.66509962,53.3858268 7.05511811,54.950604 7.05511811,56.8808547 Z" id="Combined-Shape" fill="#000000"></path>
        <polygon id="Combined-Shape" fill="#000000" points="18.1417323 61.4488189 25.1968504 61.4488189 25.1968504 68.503937 18.1417323 68.503937"></polygon>
        <polygon id="Combined-Shape" fill="#000000" points="32.2519685 61.4488189 39.3070866 61.4488189 39.3070866 68.503937 32.2519685 68.503937"></polygon>
        <polygon id="Combined-Shape" fill="#000000" points="46.3622047 61.4488189 53.4173228 61.4488189 53.4173228 68.503937 46.3622047 68.503937"></polygon>
        <path d="M0,95.9167133 C0,91.9097239 3.1640625,88.6614173 7.11007033,88.6614173 L120.88993,88.6614173 C124.816713,88.6614173 128,91.8813328 128,95.9167133 L128,117.689586 C128,121.696575 124.835937,124.944882 120.88993,124.944882 L7.11007033,124.944882 C3.18328691,124.944882 0,121.724966 0,117.689586 L0,95.9167133 Z M7.05511811,100.219437 L7.05511811,114.394736 C7.05511811,116.298922 8.6370669,117.889764 10.5884997,117.889764 L117.4115,117.889764 C119.3349,117.889764 120.944882,116.324987 120.944882,114.394736 L120.944882,100.219437 C120.944882,98.3152511 119.362933,96.7244094 117.4115,96.7244094 L10.5884997,96.7244094 C8.66509962,96.7244094 7.05511811,98.2891867 7.05511811,100.219437 Z" id="Combined-Shape" fill="#000000"></path>
        <polygon id="Combined-Shape" fill="#000000" points="18.1417323 103.779528 25.1968504 103.779528 25.1968504 110.834646 18.1417323 110.834646"></polygon>
        <polygon id="Combined-Shape" fill="#000000" points="32.2519685 103.779528 39.3070866 103.779528 39.3070866 110.834646 32.2519685 110.834646"></polygon>
        <polygon id="Combined-Shape" fill="#000000" points="46.3622047 103.779528 53.4173228 103.779528 53.4173228 110.834646 46.3622047 110.834646"></polygon>
    </g>
</svg>