<?xml version="1.0" encoding="UTF-8"?>
<svg width="128px" height="128px" viewBox="0 0 128 128" version="1.1" xmlns="http://www.w3.org/2000/svg" xmlns:xlink="http://www.w3.org/1999/xlink">
    <!-- Generator: Sketch 51.2 (57519) - http://www.bohemiancoding.com/sketch -->
    <title>mission</title>
    <desc>Created with Sketch.</desc>
    <defs></defs>
    <g id="mission" stroke="none" stroke-width="1" fill="none" fill-rule="evenodd">
        <path d="M64,127 C29.2060608,127 1,98.7939391 1,64 C1,29.2060608 29.2060608,1 64,1 C98.7939391,1 127,29.2060608 127,64 C127,98.7939391 98.7939391,127 64,127 Z M64,117.052632 C93.3001594,117.052632 117.052632,93.3001594 117.052632,64 C117.052632,34.6998406 93.3001594,10.9473684 64,10.9473684 C34.6998406,10.9473684 10.9473684,34.6998406 10.9473684,64 C10.9473684,93.3001594 34.6998406,117.052632 64,117.052632 Z M64.4921875,104.359375 C42.4741478,104.359375 24.625,86.5102272 24.625,64.4921875 C24.625,42.4741478 42.4741478,24.625 64.4921875,24.625 C86.5102272,24.625 104.359375,42.4741478 104.359375,64.4921875 C104.359375,86.5102272 86.5102272,104.359375 64.4921875,104.359375 Z M64.4921875,94.3925781 C81.0057171,94.3925781 94.3925781,81.0057171 94.3925781,64.4921875 C94.3925781,47.9786579 81.0057171,34.5917969 64.4921875,34.5917969 C47.9786579,34.5917969 34.5917969,47.9786579 34.5917969,64.4921875 C34.5917969,81.0057171 47.9786579,94.3925781 64.4921875,94.3925781 Z M64,80.734375 C54.7578601,80.734375 47.265625,73.2421399 47.265625,64 C47.265625,54.7578601 54.7578601,47.265625 64,47.265625 C73.2421399,47.265625 80.734375,54.7578601 80.734375,64 C80.734375,73.2421399 73.2421399,80.734375 64,80.734375 Z" id="icon" fill="#000000"></path>
    </g>
</svg>