<?xml version="1.0" encoding="UTF-8"?>
<svg width="128px" height="128px" viewBox="0 0 128 128" version="1.1" xmlns="http://www.w3.org/2000/svg" xmlns:xlink="http://www.w3.org/1999/xlink">
    <!-- Generator: Sketch 51.2 (57519) - http://www.bohemiancoding.com/sketch -->
    <title>netcom</title>
    <desc>Created with Sketch.</desc>
    <defs></defs>
    <g id="netcom" stroke="none" stroke-width="1" fill="none" fill-rule="evenodd">
        <path d="M41.8843186,78.9692035 C38.8969809,74.6564066 37.3004949,69.5329474 37.3091681,64.2865841 C37.3091681,50.0219469 48.8744779,38.4577699 63.139115,38.4577699 C66.1046372,38.4577699 68.952354,38.956177 71.6052389,39.8770973 L77.0616637,27.0204602 C72.3777336,24.5285343 69.451348,19.6551459 69.4530265,14.3495929 C69.4530265,6.42492035 75.8779469,0 83.8026195,0 C91.727292,0 98.1522124,6.42492035 98.1522124,14.3495929 C98.1522124,22.2753982 91.727292,28.6991858 83.8026195,28.6991858 C82.5701947,28.6991858 81.372885,28.544 80.2310796,28.2517522 L74.7350088,41.2001416 C83.1773451,45.4479292 88.9690619,54.1915752 88.9690619,64.2865841 C88.9690619,65.2335575 88.9180885,66.1692035 88.8184071,67.0901239 L99.9204248,69.8574159 C101.712425,63.9750796 107.18131,59.6955752 113.649274,59.6955752 C121.576212,59.6955752 128,66.1182301 128,74.0451681 C128,81.9698407 121.57508,88.3947611 113.650407,88.3947611 C105.724602,88.3947611 99.3008142,81.9698407 99.3008142,74.0451681 C99.3008142,73.7653805 99.3087434,73.4867257 99.323469,73.211469 L88.2293805,70.4453097 C86.7081648,76.6273818 82.9600792,82.0311104 77.7027965,85.6218053 L83.8241416,100.043894 C85.2973376,99.5501152 86.8410169,99.2991477 88.3947611,99.3008142 C96.3194336,99.3008142 102.744354,105.724602 102.744354,113.650407 C102.744354,121.57508 96.3194336,128 88.3947611,128 C80.4689558,128 74.0451681,121.57508 74.0451681,113.650407 C74.0425752,108.717142 76.5758765,104.128876 80.7521416,101.502867 L74.7508673,87.3662301 C71.149403,89.1805892 67.1717823,90.1227083 63.139115,90.116531 C55.5497345,90.116531 48.723823,86.8429027 43.9980177,81.6311504 L26.5243186,96.2933805 C27.9495774,98.5711965 28.7033977,101.204856 28.6991858,103.891823 C28.6991858,111.817628 22.2753982,118.242549 14.3495929,118.242549 C6.42492035,118.242549 0,111.817628 0,103.891823 C0,95.9671504 6.42492035,89.5433628 14.3495929,89.5433628 C18.2609558,89.5433628 21.8064425,91.1088142 24.3947611,93.6461593 L41.8843186,78.9703363 L41.8843186,78.9692035 Z" id="icon" fill="#000000" fill-rule="nonzero"></path>
    </g>
</svg>