<?xml version="1.0" encoding="UTF-8"?>
<svg width="128px" height="128px" viewBox="0 0 128 128" version="1.1" xmlns="http://www.w3.org/2000/svg" xmlns:xlink="http://www.w3.org/1999/xlink">
    <!-- Generator: Sketch 51.2 (57519) - http://www.bohemiancoding.com/sketch -->
    <title>notifications</title>
    <desc>Created with Sketch.</desc>
    <defs></defs>
    <g id="notifications" stroke="none" stroke-width="1" fill="none" fill-rule="evenodd">
        <path d="M24.31875,68.0140625 L24.31875,46.5359375 C24.31875,28.9842984 38.2137553,14.3829796 56.5491265,11.3271079 C56.5403715,11.1324259 56.5359375,10.9363656 56.5359375,10.7390625 C56.5359375,4.80804205 60.5426392,0 65.4851562,0 C70.4276733,0 74.434375,4.80804205 74.434375,10.7390625 C74.434375,11.189429 74.4112724,11.6333205 74.3664118,12.0691235 C90.9286171,16.2982886 103.071875,30.1279268 103.071875,46.5359375 L103.071875,68.0140625 C103.071875,81.8531102 109.482598,93.071875 117.390625,93.071875 L117.390625,110.970313 L10,110.970313 L10,93.071875 C17.9080273,93.071875 24.31875,81.8531102 24.31875,68.0140625 Z M81.029871,118.129688 C79.0429529,124.305462 72.0352659,128.86875 63.6953125,128.86875 C55.3553591,128.86875 48.3476721,124.305462 46.360754,118.129688 L81.029871,118.129688 Z" id="icon" fill="#000000"></path>
    </g>
</svg>