<?xml version="1.0" encoding="UTF-8"?>
<svg width="128px" height="128px" viewBox="0 0 128 128" version="1.1" xmlns="http://www.w3.org/2000/svg" xmlns:xlink="http://www.w3.org/1999/xlink">
    <!-- Generator: Sketch 51.2 (57519) - http://www.bohemiancoding.com/sketch -->
    <title>payload</title>
    <desc>Created with Sketch.</desc>
    <defs></defs>
    <g id="payload" stroke="none" stroke-width="1" fill="none" fill-rule="evenodd">
        <path d="M18.3447132,35.5661767 L64.1540585,59.6050605 L110.628574,35.2171221 L65.253045,10.1052632 L18.3447132,35.5661767 Z M14.0139518,42.9911727 L14.0139518,91.6936064 L59.3670285,115.878486 L59.3670285,66.7906255 L14.0139518,42.9911727 Z M115.420909,42.3999033 L68.9410885,66.7906255 L68.9410885,117.012604 L115.420909,91.7408852 L115.420909,42.3999033 Z M64.7283699,0 L123.308117,32.4266665 L123.308117,96.1422218 L64.7283699,128 L5,96.1422218 L5,32.4266666 L64.7283699,0 Z" id="Combined-Shape" fill="#000000" fill-rule="nonzero"></path>
        <ellipse id="Oval-path" fill="#000000" fill-rule="nonzero" cx="63.5906865" cy="23.5789474" rx="3.38023191" ry="3.36842105"></ellipse>
        <ellipse id="Oval-path" fill="#000000" fill-rule="nonzero" cx="63.5906865" cy="33.6842105" rx="3.38023191" ry="3.36842105"></ellipse>
        <ellipse id="Oval-path" fill="#000000" fill-rule="nonzero" cx="63.5906865" cy="44.9122807" rx="3.38023191" ry="3.36842105"></ellipse>
        <ellipse id="Oval-path" fill="#000000" fill-rule="nonzero" cx="79.3651021" cy="72.9824561" rx="3.38023191" ry="3.36842105"></ellipse>
        <ellipse id="Oval-path" fill="#000000" fill-rule="nonzero" cx="90.6325418" cy="78.5964912" rx="3.38023191" ry="3.36842105"></ellipse>
        <ellipse id="Oval-path" fill="#000000" fill-rule="nonzero" cx="101.899982" cy="84.2105263" rx="3.38023191" ry="3.36842105"></ellipse>
        <path d="M25.2813915,87.5789474 C23.414541,87.5789474 21.9011596,86.0708539 21.9011596,84.2105263 C21.9011596,82.3501987 23.414541,80.8421053 25.2813915,80.8421053 C27.148242,80.8421053 28.6616234,82.3501987 28.6616234,84.2105263 C28.6616234,86.0708539 27.148242,87.5789474 25.2813915,87.5789474 Z" id="Path" fill="#000000" fill-rule="nonzero"></path>
        <path d="M48.9430149,76.3508772 C47.0761644,76.3508772 45.562783,74.8427837 45.562783,72.9824561 C45.562783,71.1221286 47.0761644,69.6140351 48.9430149,69.6140351 C50.8098654,69.6140351 52.3232468,71.1221286 52.3232468,72.9824561 C52.3232468,74.8427837 50.8098654,76.3508772 48.9430149,76.3508772 Z" id="Path" fill="#000000" fill-rule="nonzero"></path>
        <path d="M36.5488312,81.9649123 C34.6819807,81.9649123 33.1685993,80.4568188 33.1685993,78.5964912 C33.1685993,76.7361636 34.6819807,75.2280702 36.5488312,75.2280702 C38.4156817,75.2280702 39.9290631,76.7361636 39.9290631,78.5964912 C39.9290631,80.4568188 38.4156817,81.9649123 36.5488312,81.9649123 Z" id="Path" fill="#000000" fill-rule="nonzero"></path>
    </g>
</svg>