<?xml version="1.0" encoding="UTF-8"?>
<svg width="128px" height="128px" viewBox="0 0 128 128" version="1.1" xmlns="http://www.w3.org/2000/svg" xmlns:xlink="http://www.w3.org/1999/xlink">
    <!-- Generator: Sketch 51.2 (57519) - http://www.bohemiancoding.com/sketch -->
    <title>processor-alt</title>
    <desc>Created with Sketch.</desc>
    <defs></defs>
    <g id="processor-alt" stroke="none" stroke-width="1" fill="none" fill-rule="evenodd">
        <path d="M57,81 L57,84.2854583 L0,84.2854594 L0,47 L46.6521742,47 L46.6521742,13.6666667 L128,13.6666667 L128,27 L57,27 L57,81 Z M64.1459351,77 L64.1459351,30.4838709 L128,30.483871 L128,84 L99.0297552,84 L99.0297552,103.900655 L18,103.900655 L18,128 L2.99108572,128 C1.33915469,128 0,126.659752 0,125.008914 L0,90.9999985 L81.5865017,91 L81.5948644,90 L82,90 L82,77 L81.7035796,77 L81.9198328,51.140755 L128,51.140755 L127.042431,44 L70.6575307,44 L70.6575307,77 L64.1459351,77 Z M128,7 L37.9842145,7 L37.9842156,36.168431 L0,36.168431 L0,2.99108572 C0,1.33915469 1.34024796,0 2.99108572,0 L125.008914,0 C126.660845,0 128,1.34024796 128,2.99108572 L128,7 Z M128,90.7526537 L128,125.008914 C128,126.660845 126.659752,128 125.008914,128 L32.7810922,128 L32.7810922,111.505786 L106.495198,111.505786 L106.495198,90.7526537 L128,90.7526537 Z" id="icon" fill="#000000"></path>
    </g>
</svg>