<?xml version="1.0" encoding="UTF-8"?>
<svg width="128px" height="128px" viewBox="0 0 128 128" version="1.1" xmlns="http://www.w3.org/2000/svg" xmlns:xlink="http://www.w3.org/1999/xlink">
    <!-- Generator: Sketch 51.2 (57519) - http://www.bohemiancoding.com/sketch -->
    <title>satellite-transmit</title>
    <desc>Created with Sketch.</desc>
    <defs></defs>
    <g id="satellite-transmit" stroke="none" stroke-width="1" fill="none" fill-rule="evenodd">
        <path d="M61,126.589514 L61,116.305373 C62.1655305,116.382089 63.3413731,116.421052 64.5263155,116.421052 C93.7392724,116.421052 117.421052,92.7392721 117.421052,63.5263156 C117.421052,62.3413729 117.382089,61.1655305 117.305374,60 L127.589515,60 C127.860605,62.3131866 128,64.6666303 128,67.0526315 C128,100.160649 101.160649,127 68.0526314,127 C65.6666305,127 63.3131866,126.860605 61,126.589514 Z" id="Path" fill="#000000"></path>
        <path d="M107,60 C105.263454,84.6056954 85.6056954,104.263454 61,106 L61,96.88475 C80.0269021,94.0695578 95.0695576,79.0269022 97.8847502,60 L107,60 Z" id="Path" fill="#000000"></path>
        <path d="M88,60 C84.3121973,73.0386487 74.0386485,83.3121971 61,87 L61,79.042981 C69.6386907,75.5378519 76.5378518,68.6386906 80.0429812,60 L88,60 Z" id="Path" fill="#000000"></path>
        <polygon id="Satellite" fill="#000000" points="32 48.8673842 49.8009006 31 66 58.1564569 57.6538495 67"></polygon>
        <polygon id="Satellite-L" fill="#000000" points="14.0324879 100 0 86.4038029 21.407915 64.7816634 37.878719 60 41 63.4550613 34.5745278 81.0826546"></polygon>
        <polygon id="Satellite-R" fill="#000000" points="85.9675121 0 100 13.596197 78.592085 35.2183366 62.1212807 40 59 36.5449387 65.4254722 18.9173453"></polygon>
    </g>
</svg>