<?xml version="1.0" encoding="UTF-8"?>
<svg width="128px" height="128px" viewBox="0 0 128 128" version="1.1" xmlns="http://www.w3.org/2000/svg" xmlns:xlink="http://www.w3.org/1999/xlink">
    <!-- Generator: Sketch 51.2 (57519) - http://www.bohemiancoding.com/sketch -->
    <title>settings</title>
    <desc>Created with Sketch.</desc>
    <defs></defs>
    <g id="settings" stroke="none" stroke-width="1" fill="none" fill-rule="evenodd">
        <path d="M47.5889718,128 C41.1209583,126.348795 35.0347904,123.742771 29.4894399,120.340909 C30.4289989,118.26604 30.952105,115.962325 30.952105,113.536424 C30.952105,104.41702 23.5598583,97.0242825 14.44106,97.0242825 C12.01532,97.0242825 9.71175801,97.5474232 7.63702695,98.4870446 C4.25015688,92.9653998 1.65217773,86.9075871 0,80.4705274 C8.567439,79.8648129 15.3297028,72.7221645 15.3297028,64 C15.3297028,55.2778355 8.567439,48.1351871 1.33974703e-12,47.5294726 C1.65217773,41.0924129 4.25015688,35.0346002 7.63702695,29.5129554 C9.71175801,30.4525768 12.01532,30.9757175 14.44106,30.9757175 C23.5598583,30.9757175 30.952105,23.5829801 30.952105,14.4635763 C30.952105,12.0376753 30.4289989,9.73396031 29.4894399,7.65909149 C35.0347904,4.25722915 41.1209583,1.65120453 47.5889718,0 C48.5977374,8.15273648 55.5490273,14.4635763 63.9741949,14.4635763 C72.3993625,14.4635763 79.3506523,8.15273648 80.3594179,4.75045188e-11 C86.8274315,1.65120453 92.9135994,4.25722915 98.4589498,7.65909149 C97.5193908,9.73396031 96.9962848,12.0376753 96.9962848,14.4635763 C96.9962848,23.5829801 104.388531,30.9757175 113.50733,30.9757175 C115.93307,30.9757175 118.236632,30.4525768 120.311363,29.5129554 C123.733712,35.0924418 126.350555,41.2193881 128,47.7318901 C120.236445,49.0798367 114.332932,55.850453 114.332932,64 C114.332932,72.149547 120.236445,78.9201633 128,80.2681099 C126.350555,86.7806119 123.733712,92.9075582 120.311363,98.4870446 C118.236632,97.5474232 115.93307,97.0242825 113.50733,97.0242825 C104.388531,97.0242825 96.9962848,104.41702 96.9962848,113.536424 C96.9962848,115.962325 97.5193908,118.26604 98.4589498,120.340909 C92.9135994,123.742771 86.8274315,126.348795 80.3594179,128 C79.3506523,119.847264 72.3993625,113.536424 63.9741949,113.536424 C55.5490273,113.536424 48.5977374,119.847264 47.5889718,128 Z M64.5614035,97.6842105 C82.8546247,97.6842105 97.6842105,82.8546247 97.6842105,64.5614035 C97.6842105,46.2681823 82.8546247,31.4385965 64.5614035,31.4385965 C46.2681823,31.4385965 31.4385965,46.2681823 31.4385965,64.5614035 C31.4385965,82.8546247 46.2681823,97.6842105 64.5614035,97.6842105 Z" id="Gear/Enabled" fill="#000000"></path>
    </g>
</svg>