<?xml version="1.0" encoding="UTF-8"?>
<svg width="128px" height="128px" viewBox="0 0 128 128" version="1.1" xmlns="http://www.w3.org/2000/svg" xmlns:xlink="http://www.w3.org/1999/xlink">
    <!-- Generator: Sketch 51.2 (57519) - http://www.bohemiancoding.com/sketch -->
    <title>thermal</title>
    <desc>Created with Sketch.</desc>
    <defs></defs>
    <g id="thermal" stroke="none" stroke-width="1" fill="none" fill-rule="evenodd">
        <path d="M34.2727273,17.9631129 C34.2727273,8.5996861 41.8479574,1 51.2037787,1 L51.7962213,1 C61.1520426,1 68.7272727,8.5996861 68.7272727,17.9631129 L68.7272727,74.8123388 C76.2998419,80.2340708 81,89.0194375 81,98.6456522 C81,114.867824 67.78226,128 51.5,128 C35.21774,128 22,114.867824 22,98.6456522 C22,89.0194381 26.7001577,80.2340711 34.2727273,74.8123388 L34.2727273,17.9631129 Z M41.5446614,78.5929738 C34.1118751,82.2423871 29,89.8509129 29,98.6456522 C29,110.991618 39.0735931,121 51.5,121 C63.9264069,121 74,110.991618 74,98.6456522 C74,89.8509129 68.8881249,82.2423871 61.4553386,78.5929738 C61.6331282,77.8469499 61.7272727,77.0683329 61.7272727,76.2676563 L61.7272727,17.9631129 C61.7272727,12.4606376 57.2809896,8 51.7962213,8 L51.2037787,8 C45.7190104,8 41.2727273,12.4606376 41.2727273,17.9631129 L41.2727273,76.2676563 C41.2727273,77.0683329 41.3668718,77.8469499 41.5446614,78.5929738 Z M47.1132075,83.8032091 L47.1132075,32 L55.8867925,32 L55.8867925,83.8032091 C62.3108335,85.6844775 67,91.5920903 67,98.5886525 C67,107.100105 60.0604136,114 51.5,114 C42.9395864,114 36,107.100105 36,98.5886525 C36,91.5920903 40.6891665,85.6844775 47.1132075,83.8032091 Z M78,15 L99,15 L99,21.9130435 L78,21.9130435 L78,15 Z M78,26.5217391 L93.1666667,26.5217391 L93.1666667,33.4347826 L78,33.4347826 L78,26.5217391 Z M78,38.0434783 L99,38.0434783 L99,44.9565217 L78,44.9565217 L78,38.0434783 Z M78,49.5652174 L93.1666667,49.5652174 L93.1666667,56.4782609 L78,56.4782609 L78,49.5652174 Z M78,61.0869565 L99,61.0869565 L99,68 L78,68 L78,61.0869565 Z" id="icon" fill="#000000" fill-rule="nonzero"></path>
    </g>
</svg>